# xmcd
#
# Track frame offsets:
#	150
#	27605
#	54391
#	76535
#	118971
#	143160
#	170167
#	198924
#	216361
#	245340
#	271056
#	294460
#	318768
#
# Disc length: 4559 seconds
#
# Revision: 1
# Processed by: cddbd v1.5.2PL0 Copyright (c) Steve Scherf et al.
# Submitted via: EasyCDDAExtractor 16.0.9.1
#
DISCID=bb11cd0d
DTITLE=Hoàng Oanh - AsiaCD: The Best Of Hoàng Oanh 2 - Chuyến Đò Vĩ Tuyến 2
DYEAR=2018
DGENRE=Country
TTITLE0=Hoàng Oanh - Chuyến Đò Vĩ Tuyến [Ver. 1996] (Lam Phương)
TTITLE1=Hoàng Oanh - Để Trả Lời Một Câu Hỏi (Trúc Phương)
TTITLE2=Hoàng Oanh - Chiều Tây Đô (Lam Phương)
TTITLE3=Hoàng Oanh and Duy Khánh - Liên Khúc Lính: 24 Giờ Phép (Trúc Phương), Mộ
TTITLE3=t Người Đi (Mai Châu), Sao Không Thấy Anh Về (Duy Khánh)
TTITLE4=Hoàng Oanh - Chuyện Một Đêm (Anh Bằng)
TTITLE5=Hoàng Oanh - Mưa Trên Phố Huế (Minh Kỳ - Tôn Nữ Thụy Khương)
TTITLE6=Hoàng Oanh - Xin Thời Gian Qua Mau (Lam Phương)
TTITLE7=Hoàng Oanh and Thanh Thúy - Tâm Tình Gởi Huế (Tôn Nữ Trà Mi - Hoàng Thi 
TTITLE7=Thơ)
TTITLE8=Hoàng Oanh - Sầu Lẻ Bóng (Anh Bằng)
TTITLE9=Hoàng Oanh - Đôi Bóng (Anh Bằng)
TTITLE10=Hoàng Oanh - Ai Nhớ Chăng Ai? (Hoàng Thi Thơ)
TTITLE11=Hoàng Oanh - Nương Chiều (Phạm Duy)
TTITLE12=Hoàng Oanh - Huyền Sử Ca Một Người Mang Tên Quốc (Phạm Duy)
EXTD=
EXTT0=
EXTT1=
EXTT2=
EXTT3=
EXTT4=
EXTT5=
EXTT6=
EXTT7=
EXTT8=
EXTT9=
EXTT10=
EXTT11=
EXTT12=
PLAYORDER=
